<?xml version="1.0" encoding="UTF-8"?>
<svg width="20px" height="18px" viewBox="0 0 20 18" version="1.1" xmlns="http://www.w3.org/2000/svg" xmlns:xlink="http://www.w3.org/1999/xlink">
    <!-- Generator: Sketch 53.2 (72643) - https://sketchapp.com -->
    <title>icon / users</title>
    <desc>Created with Sketch.</desc>
    <g id="Styleguides-patient" stroke="none" stroke-width="1" fill="none" fill-rule="evenodd">
        <g id="I---Icons" transform="translate(-241.000000, -207.000000)">
            <g id="ICONS" transform="translate(161.000000, 206.000000)">
                <g id="icon-/-users" transform="translate(80.000000, 0.000000)">
                    <rect id="Rectangle" x="0" y="0" width="20" height="20"></rect>
                    <path d="M20,19 L15.5078127,19 L15.5078127,15.9200005 C15.5078127,15.1733338 15.3125,14.6266666 14.9218747,14.2800003 C14.6093747,13.9866666 13.5807293,13.3733336 11.8359373,12.4399999 C12.3828127,12.0400002 12.65625,11.4666667 12.65625,10.72 C12.65625,10.533333 12.565104,10.3199997 12.3828127,10.08 C12.2005207,9.86666666 12.0703127,9.50666649 11.9921873,9.00000015 C11.9921873,8.91999981 11.9010413,8.81333314 11.71875,8.68000015 C11.5885413,8.5999998 11.497396,8.31999997 11.4453127,7.83999996 C11.4453127,7.49333363 11.5234373,7.28000029 11.6796873,7.19999995 C11.627604,6.96000028 11.5755207,6.55999993 11.5234373,6.00000027 C11.471354,5.41333291 11.627604,4.87999956 11.9921873,4.40000024 C12.3307293,3.83999988 12.9557293,3.56000005 13.8671873,3.56000005 C14.778646,3.56000005 15.4166667,3.83999988 15.78125,4.40000024 C16.1718747,4.90666657 16.341146,5.43999991 16.2890627,6.00000027 L16.1328127,7.19999995 C16.2890627,7.28000029 16.3671873,7.49333363 16.3671873,7.83999996 C16.315104,8.31999997 16.2239587,8.5999998 16.09375,8.68000015 C15.9375,8.81333314 15.8333333,8.91999981 15.78125,9.00000015 C15.7031253,9.48000016 15.5859373,9.84000034 15.4296873,10.08 C15.247396,10.266667 15.15625,10.4800004 15.15625,10.72 C15.15625,11.2799997 15.2994793,11.7333334 15.5859373,12.0800004 C15.8984373,12.453333 16.40625,12.7866669 17.1093747,13.0799999 C18.619792,13.7199999 19.4921873,14.2666664 19.7265627,14.7200001 C19.778646,14.7733334 19.8307293,15.1866669 19.8828127,15.9599999 C19.908854,16.44 19.9479167,17.1333333 20,18.04 L20,19 Z M10.2343747,13.6400002 C12.65625,14.7066669 13.8671873,15.5600003 13.8671873,16.2000003 L13.8671873,19 L0,19 L0,15.2400003 C0,14.6533336 0.559896,14.1200002 1.67968733,13.6400002 C2.721354,13.1866666 3.41145867,12.7466667 3.75,12.32 C4.14062533,11.8933334 4.33593733,11.2933335 4.33593733,10.5199998 C4.33593733,10.2800002 4.20572933,9.9866665 3.94531267,9.64000016 C3.684896,9.34666648 3.51562533,8.88000032 3.4375,8.24000031 C3.38541667,8.10666663 3.26822933,7.95999979 3.08593733,7.79999979 C2.877604,7.63999978 2.747396,7.25333328 2.69531267,6.64000028 C2.69531267,6.39999993 2.70833333,6.23999993 2.73437467,6.15999959 C2.78645867,6.02666659 2.83854133,5.94666625 2.89062533,5.91999992 L2.96875,5.87999975 C2.86458333,4.91999973 2.79947933,4.36000006 2.77343733,4.20000006 C2.69531267,3.53333304 2.91666667,2.82666653 3.4375,2.07999985 C3.90625,1.35999949 4.752604,1 5.97656267,1 C7.14843733,1 7.994792,1.35999949 8.51562533,2.07999985 C9.01041667,2.82666653 9.21875,3.53333304 9.14062533,4.20000006 L8.94531267,5.87999975 C9.153646,5.96000009 9.25781267,6.2133336 9.25781267,6.64000028 C9.17968733,7.28000029 9.03645867,7.66666679 8.82812533,7.79999979 C8.64583333,7.95999979 8.528646,8.10666663 8.47656267,8.24000031 C8.39843733,8.88000032 8.22916667,9.34666648 7.96875,9.64000016 C7.73437467,9.96000017 7.61718733,10.2533332 7.61718733,10.5199998 C7.61718733,11.3199999 7.79947933,11.9199997 8.16406267,12.32 C8.502604,12.7466667 9.192708,13.1866666 10.2343747,13.6400002 L10.2343747,13.6400002 Z" fill="white" fill-rule="evenodd"></path>
                </g>
            </g>
        </g>
    </g>
</svg>
