<?xml version="1.0" encoding="UTF-8"?>
<svg width="20px" height="20px" viewBox="0 0 20 20" version="1.1" xmlns="http://www.w3.org/2000/svg" xmlns:xlink="http://www.w3.org/1999/xlink">
    <!-- Generator: Sketch 53.2 (72643) - https://sketchapp.com -->
    <title>icon / historique</title>
    <desc>Created with Sketch.</desc>
    <g id="icon-/-historique" stroke="none" stroke-width="1" fill="none" fill-rule="evenodd">
        <path d="M11.2647609,1 C6.51456051,1 2.65028052,4.80657227 2.53486508,9.54501737 L2.53486508,9.76409297 L0,9.76409297 L3.84076944,13.9254609 L7.57467272,9.76409297 L4.71920919,9.76409297 L4.71920919,9.54501737 C4.83355597,6.01522843 7.72001069,3.19182474 11.2647609,3.19182474 C14.8832487,3.19182474 17.8167246,6.13491851 17.8167246,9.76409297 C17.8167246,13.3932674 14.8832487,16.3363612 11.2647609,16.3363612 C9.81458723,16.3363612 8.47448571,15.8608068 7.38872562,15.061448 L5.88618755,16.6687149 C7.36948971,17.8314186 9.23644136,18.5260486 11.2647609,18.5260486 C16.0897676,18.5260486 20,14.6040609 20,9.76409297 C20,4.92412503 16.0897676,1 11.2647609,1 Z M10.1960994,4.42078547 L10.1960994,9.76409297 C10.1960994,9.90301897 10.2249532,10.041945 10.2783863,10.1723217 C10.3328881,10.3026984 10.4109003,10.4213198 10.5092172,10.5196367 L13.928934,13.9393535 C14.2313652,13.7437884 14.5166978,13.5236441 14.7699706,13.268234 L12.3334224,10.8327545 L12.3334224,4.42078547 L10.1960994,4.42078547 Z" id="Shape" fill="white" fill-rule="nonzero"></path>
    </g>
</svg>
