<?xml version="1.0" encoding="UTF-8"?>
<svg width="20px" height="20px" viewBox="0 0 20 20" version="1.1" xmlns="http://www.w3.org/2000/svg" xmlns:xlink="http://www.w3.org/1999/xlink">
    <!-- Generator: Sketch 62 (91390) - https://sketch.com -->
    <title>Glyph/Regular/Folder plus</title>
    <desc>Created with Sketch.</desc>
    <g id="Glyph/Regular/Folder-plus" stroke="none" stroke-width="1" fill="none" fill-rule="evenodd">
        <path d="M16.4999654,16 C17.3283936,16 17.9999619,15.3284318 17.9999619,14.5000036 L17.9999619,7.50002861 C17.9999619,6.67159206 17.3283936,6.00002861 16.4999654,6.00002861 L10.4999797,6.00002861 L8.79279997,4.29284407 C8.60530041,4.10534452 8.35093701,4.00002861 8.08561781,4.00002861 L3.5,4.00002861 C2.67156822,4.00002861 2,4.67159683 2,5.50002861 L2,14.5000036 C2,15.3284318 2.67156822,16 3.5,16 L16.4999654,16 Z M16.4999654,14.5000036 L3.49999642,14.5000036 L3.49999642,5.50002503 L7.87873965,5.50002503 L9.58591941,7.2072048 C9.77341897,7.39470435 10.0277824,7.50002503 10.2931016,7.50002503 L16.4999654,7.50002503 L16.4999654,14.5000036 Z M10.2499803,13.500006 C10.5262248,13.500006 10.7499791,13.2762516 10.7499791,13.0000072 L10.7499791,11.7500101 L11.9999762,11.7500101 C12.2762206,11.7500101 12.499975,11.5262558 12.499975,11.2500113 L12.499975,10.7500125 C12.499975,10.4737681 12.2762206,10.2500137 11.9999762,10.2500137 L10.7499791,10.2500137 L10.7499791,9.00001788 C10.7499791,8.72377223 10.5262248,8.50001788 10.2499803,8.50001788 L9.74998152,8.50001788 C9.47373706,8.50001788 9.24998271,8.72377223 9.24998271,9.00001788 L9.24998271,10.2500137 L7.99998689,10.2500137 C7.72374124,10.2500137 7.49998689,10.4737681 7.49998689,10.7500125 L7.49998689,11.2500113 C7.49998689,11.5262558 7.72374124,11.7500101 7.99998689,11.7500101 L9.24998271,11.7500101 L9.24998271,13.0000072 C9.24998271,13.2762516 9.47373706,13.500006 9.74998152,13.500006 L10.2499803,13.500006 Z" id="f" fill="#000000"></path>
    </g>
</svg>