<?xml version="1.0" encoding="UTF-8"?>
<svg width="20px" height="20px" viewBox="0 0 20 20" version="1.1" xmlns="http://www.w3.org/2000/svg" xmlns:xlink="http://www.w3.org/1999/xlink">
    <!-- Generator: Sketch 62 (91390) - https://sketch.com -->
    <title>Glyph/Regular/Address card</title>
    <desc>Created with Sketch.</desc>
    <g id="Glyph/Regular/Address-card" stroke="none" stroke-width="1" fill="none" fill-rule="evenodd">
        <path d="M17.4999607,16.9999976 C18.3280837,16.9999976 18.9999571,16.3281242 18.9999571,15.5000012 L18.9999571,4.50003099 C18.9999571,3.67190439 18.3280837,3.00003099 17.4999607,3.00003099 L2.5,3.00003099 C1.6718734,3.00003099 1,3.67190439 1,4.50003099 L1,15.5000012 C1,16.3281242 1.6718734,16.9999976 2.5,16.9999976 L17.4999607,16.9999976 Z M17.4999607,15.5000012 L2.49999642,15.5000012 L2.49999642,4.50002742 L17.4999607,4.50002742 L17.4999607,15.5000012 Z M7.49998927,10.0000238 C8.60310077,10.0000238 9.49998927,9.10313534 9.49998927,8.00002384 C9.49998927,6.89690281 8.60310077,6.00002384 7.49998927,6.00002384 C6.39686824,6.00002384 5.49998927,6.89690281 5.49998927,8.00002384 C5.49998927,9.10313534 6.39686824,10.0000238 7.49998927,10.0000238 Z M15.7499648,8.00002027 C15.8874767,8.00002027 15.9999738,7.88753155 15.9999738,7.75001967 L15.9999738,7.25002086 C15.9999738,7.11250898 15.8874767,7.00002027 15.7499648,7.00002027 L12.2499732,7.00002027 C12.1124613,7.00002027 11.9999738,7.11250898 11.9999738,7.25002086 L11.9999738,7.75001967 C11.9999738,7.88753155 12.1124613,8.00002027 12.2499732,8.00002027 L15.7499648,8.00002027 Z M15.7499648,10.0000155 C15.8874767,10.0000155 15.9999738,9.88752678 15.9999738,9.7500149 L15.9999738,9.25001609 C15.9999738,9.11250421 15.8874767,9.0000155 15.7499648,9.0000155 L12.2499732,9.0000155 C12.1124613,9.0000155 11.9999738,9.11250421 11.9999738,9.25001609 L11.9999738,9.7500149 C11.9999738,9.88752678 12.1124613,10.0000155 12.2499732,10.0000155 L15.7499648,10.0000155 Z M10.2999656,14.0000119 C10.6874769,14.0000119 10.9999762,13.7312676 10.9999762,13.4000001 L10.9999762,12.7999954 C10.9999762,11.8062539 10.0593656,11.0000119 8.89997506,11.0000119 C8.56248197,11.0000119 8.31559535,11.2500113 7.49999285,11.2500113 C6.6593493,11.2500113 6.45622478,11.0000119 6.09999394,11.0000119 C4.9406034,11.0000119 3.99999285,11.8062539 3.99999285,12.7999954 L3.99999285,13.4000001 C3.99999285,13.7312676 4.3124921,14.0000119 4.70000339,14.0000119 L10.2999656,14.0000119 Z M15.7499648,12.0000107 C15.8874767,12.0000107 15.9999738,11.887522 15.9999738,11.7500101 L15.9999738,11.2500113 C15.9999738,11.1124994 15.8874767,11.0000107 15.7499648,11.0000107 L12.2499732,11.0000107 C12.1124613,11.0000107 11.9999738,11.1124994 11.9999738,11.2500113 L11.9999738,11.7500101 C11.9999738,11.887522 12.1124613,12.0000107 12.2499732,12.0000107 L15.7499648,12.0000107 Z" id="a" fill="#000000"></path>
    </g>
</svg>