<?xml version="1.0" encoding="UTF-8"?>
<svg width="304px" height="91px" viewBox="0 0 304 91" version="1.1" xmlns="http://www.w3.org/2000/svg" xmlns:xlink="http://www.w3.org/1999/xlink">
    <!-- Generator: Sketch 53.2 (72643) - https://sketchapp.com -->
    <title>logo blanc</title>
    <desc>Created with Sketch.</desc>
    <g id="Ressources" stroke="none" stroke-width="1" fill="none" fill-rule="evenodd">
        <g id="ressource---logo-vector" transform="translate(-146.000000, -176.000000)" fill="#FEFEFE">
            <g id="logo" transform="translate(-1.000000, -1.000000)">
                <g id="DARK">
                    <g id="logo-blanc" transform="translate(147.000000, 177.000000)">
                        <path d="M288.517878,61.2637644 C288.227843,61.0098295 287.953562,60.7569706 287.678924,60.5109264 C287.409298,60.2641648 287.181567,60.0242178 286.998594,59.8000522 C286.812757,59.5697892 286.692088,59.3635567 286.629068,59.1799202 C286.568554,58.9923384 286.59147,58.847079 286.704262,58.7416315 C286.875061,58.5766455 287.094914,58.5479523 287.363108,58.6573452 C287.629152,58.7681727 287.913459,58.9557545 288.207791,59.232644 C288.507852,59.5009255 288.807913,59.83018 289.107975,60.2196903 C289.409468,60.6117113 289.69091,60.9911789 289.960893,61.3688533 C290.229803,61.7404303 290.452521,62.0976608 290.628333,62.4308606 C290.804144,62.7637018 290.922665,63.0144087 290.977091,63.1815467 C290.032507,62.4954204 289.209308,61.8555618 288.517878,61.2637644 M274.808874,30.6054307 C274.950669,28.006902 275.111442,25.4600212 275.281167,22.9733961 C275.456262,20.4849776 275.76062,18.2587434 276.185647,16.3033013 C276.623207,14.3410445 277.203993,12.7873073 277.939824,11.6334817 C278.679235,10.4803734 279.56796,9.93627849 280.602778,9.99796889 C282.220889,10.1163284 283.2976,11.0933321 283.847593,12.9296974 C284.392215,14.7639107 284.581633,17.0504007 284.393647,19.7913193 C284.216403,22.5315207 283.720479,25.5374928 282.915899,28.8167678 C282.110245,32.0974775 281.27344,35.2623383 280.406914,38.3131436 C279.54397,41.3639489 278.598669,44.0894449 277.550604,46.4982397 C276.516502,48.9073932 275.660003,50.6411803 275.014764,51.6777224 C274.65956,43.8032302 274.595466,36.7809263 274.808874,30.6054307 M201.274891,73.5616732 C199.192008,74.6986416 197.701011,74.6986416 196.80584,73.5616732 C195.291927,72.1424354 194.771654,69.8286869 195.231772,66.6261663 C195.691174,63.424363 196.856686,60.1938664 198.729025,56.9188954 C199.581586,59.4768949 200.728121,61.7239317 202.18152,63.640638 C203.634561,65.5605723 205.231546,67.0884856 206.983574,68.2236606 C205.259475,70.64465 203.350971,72.4186076 201.274891,73.5616732 M111.323117,73.5616732 C109.242024,74.6986416 107.750669,74.6986416 106.855141,73.5616732 C105.341586,72.1424354 104.820596,69.8286869 105.282147,66.6261663 C105.740832,63.424363 106.906702,60.1938664 108.778326,56.9188954 C109.63196,59.4768949 110.778137,61.7239317 112.230104,63.640638 C113.684578,65.5605723 115.280846,67.0884856 117.0318,68.2236606 C115.309134,70.64465 113.401346,72.4186076 111.323117,73.5616732 M227.86576,30.1470567 C227.995023,27.548528 228.135744,25.0012885 228.288639,22.5110768 C228.445831,20.0266036 228.716889,17.7996521 229.095367,15.843134 C229.488168,13.8815946 230.006293,12.3278574 230.667287,11.1740317 C231.32649,10.0191301 232.122476,9.47826316 233.047725,9.5385189 C234.493247,9.65795438 235.456808,10.6349581 235.948436,12.4691714 C236.436483,14.3044607 236.603701,16.5920267 236.438632,19.3318694 C236.279291,22.0731467 235.835645,25.0762495 235.118434,28.3573178 C234.392271,31.6401795 233.666467,34.8079096 232.872629,37.8529763 C231.697449,42.3814818 229.000479,47.9382801 228.423631,48.9794849 C228.050882,39.7166001 227.712149,35.0636378 227.86576,30.1470567 M303.821718,60.5711821 C303.448611,60.4800812 303.072997,60.5489449 302.697025,60.7691652 C302.321412,60.9890269 301.986976,61.2816977 301.692644,61.6296028 C301.029501,62.8687907 300.147937,63.640638 299.036135,63.9465793 C297.921826,64.2600526 296.517124,64.1936996 294.809496,63.7471615 C294.796606,62.6916102 294.609336,61.6296028 294.250552,60.5711821 C293.886396,59.5088161 293.312055,58.5820255 292.508907,57.7893756 C291.682844,56.8159586 290.525567,56.1090297 289.038151,55.6685889 C287.556106,55.2285068 286.331155,55.0068518 285.365086,55.0068518 C284.375744,55.0975941 283.545383,55.4060461 282.894057,55.9336424 C282.235211,56.4644668 281.821642,57.1265625 281.650844,57.9224404 C281.48291,58.7161662 281.543781,59.597765 281.845991,60.5711821 C282.146768,61.5420885 282.714665,62.5133536 283.541086,63.4846187 C283.454792,64.2801379 283.3198,65.251403 283.126085,66.3984139 C282.924851,67.5472182 282.625864,68.6070736 282.220889,69.5783387 C281.821642,70.5492451 281.360092,71.3451229 280.85271,71.9627442 C280.342462,72.5803655 279.719423,72.6693145 278.981445,72.2270804 C278.244182,71.783053 277.683447,71.0137164 277.294585,69.9097452 C276.903932,68.8068501 276.603155,67.6383192 276.38724,66.3984139 C276.145902,64.9888601 276.016639,63.4846187 276.006613,61.8935803 C277.665543,59.5088161 279.297977,56.7729187 280.917162,53.6819429 C282.531692,50.5913258 283.997265,47.3464827 285.321044,43.9463376 C286.639094,40.5483445 287.799235,37.1460473 288.803616,33.7459022 C289.806566,30.3461158 290.568535,27.1461058 291.099909,24.1422856 C291.623046,21.1420521 291.814255,18.425164 291.668521,15.9955666 C291.529949,13.5684799 290.979956,11.647111 290.032507,10.2343292 C289.205011,8.99872793 287.937807,7.91627667 286.219796,6.98948606 C284.505006,6.06269545 282.736865,5.35540788 280.931485,4.86977534 C279.116436,4.38593613 277.421699,4.09828672 275.831518,4.00826178 C274.246707,3.9207475 273.087998,4.05381225 272.363984,4.40638004 C270.127131,5.37907978 268.331061,7.43279612 266.966462,10.5660944 C265.61189,13.7008273 264.624337,17.3663846 264.011324,21.5598969 C263.398311,25.7566372 263.059579,30.2356469 263.00551,35.0026647 C262.948936,39.7729105 263.106128,44.2777441 263.483174,48.5171656 C263.857713,52.755511 264.362231,56.4644668 264.998877,59.6440328 C265.182208,60.5683128 265.372342,61.4047198 265.567847,62.1579165 C264.974886,63.413603 264.290618,64.5645593 263.5154,65.6007428 C262.652455,66.7534924 261.805624,67.7226055 260.975621,68.5184833 C260.138816,69.3118505 259.350707,69.9097452 258.604851,70.3053528 C257.855414,70.7023951 257.294679,70.8142986 256.909397,70.636042 C256.381605,70.3720645 255.998472,69.666929 255.759282,68.5184833 C255.521167,67.367527 255.276964,66.0896033 255.039207,64.6739521 C254.79751,63.264757 254.567631,61.8734951 254.360309,60.5023184 C254.145826,59.1340111 253.850062,58.0999796 253.465138,57.3912574 C253.084154,56.6864805 252.535593,56.0667072 251.830556,55.5376762 C251.125162,55.0068518 250.356389,54.5423805 249.514212,54.1464142 C248.677407,53.7508066 247.81303,53.3971629 246.899956,53.0887109 C245.991178,52.7816936 245.168695,52.5378013 244.435013,52.3573927 C243.747164,52.2792038 243.278453,52.6357169 243.024582,53.4172481 C242.944017,53.363807 242.912865,53.437692 242.947598,53.6819429 C242.818693,54.2253206 242.745289,54.8544191 242.725595,55.5638587 C241.414707,60.9990696 234.97091,73.755711 229.923579,71.1668664 C223.894783,68.0740973 226.208978,58.4069969 226.529091,57.8880085 C228.055178,55.4060461 238.299155,43.0317416 242.541548,18.3918081 C242.962995,15.9561135 243.920469,6.48986558 234.130165,4.86977534 C223.629096,3.13096696 221.22968,8.44028638 220.203814,10.7640775 C216.652851,18.8103703 217.206066,44.5553509 219.687838,60.4047615 C218.108399,62.1320926 215.972879,62.9516424 214.570326,62.7859391 C214.372314,60.455692 213.592799,58.3682611 212.219607,56.5232878 C210.844983,54.6833359 208.853765,53.4681785 206.245237,52.8849891 C205.858165,51.7218382 205.05645,50.7986342 203.830424,50.1189639 C202.608695,49.4418042 201.314637,49.1010723 199.968658,49.1010723 C197.84388,49.1010723 195.951489,49.6602312 194.304375,50.7728103 C192.65547,51.8936388 191.27082,53.3207672 190.159734,55.0674662 C189.423188,56.2252371 188.805878,57.4576104 188.304582,58.7620754 C187.004078,60.1533373 186.426156,63.0574486 183.653275,68.8574218 C183.653275,68.8574218 179.850231,75.7785822 175.590651,74.3453565 C172.588964,73.3375075 172.609732,71.401792 173.071282,67.7226055 C173.189803,66.7760883 176.678462,52.0245515 179.356813,40.7671302 C183.267635,40.6778226 186.792818,40.5917429 189.920545,40.501718 C193.854999,40.3926838 197.005284,40.2718137 199.385722,40.1322929 C201.766519,39.9952829 203.048761,39.744576 203.250354,39.3812482 C203.52177,38.7492803 203.256083,38.0688926 202.450071,37.3440305 C201.641195,36.6213203 200.585251,35.9466713 199.279376,35.3329953 C197.978872,34.71107 196.582048,34.1913643 195.076012,33.7620422 C193.578571,33.3309267 192.246198,33.1361716 191.084983,33.181722 C190.476267,33.2039593 188.868182,33.4030184 186.267532,33.7692155 C184.703489,33.9930225 182.893096,34.2405014 180.846735,34.5130869 C181.778429,30.6075826 182.407913,27.9774915 182.407913,27.9774915 C182.407913,27.9774915 184.161016,23.8395723 176.380549,21.4207349 C174.540078,20.848664 173.189803,20.1618204 172.138156,20.1618204 C171.000573,20.1618204 170.079979,20.5599386 169.376017,21.3550992 C169.017233,21.7603907 167.053228,28.473884 165.275419,36.5036782 C162.283758,36.7909689 159.253784,37.0517184 156.17547,37.2773188 C156.17547,37.2773188 151.736856,40.7685648 164.410326,40.6046549 C163.808771,43.613855 163.270594,46.6861802 162.879584,49.5874222 C162.879584,49.5877809 162.879584,49.5874222 162.879584,49.5874222 C159.657327,67.6860216 154.249421,76.3119172 146.071499,72.8088352 C139.002514,69.7799085 142.320733,59.3614047 143.141068,58.1727886 C147.666335,51.5945121 153.261869,63.7550522 155.18577,60.7250494 C155.960988,59.5088161 158.773614,51.1709286 147.723268,48.2912065 C136.245388,45.3010156 133.148455,50.8674979 132.498203,51.4836846 C131.847951,52.1034579 131.273609,53.136772 130.77482,54.5943869 C130.276031,56.0523606 130.009628,57.6659948 129.979551,59.4302684 C129.975254,59.6608901 129.976328,59.8925878 129.982057,60.1246441 C128.384714,62.0435023 126.095942,62.9602503 124.618552,62.7859391 C124.42233,60.455692 123.642099,58.3682611 122.270698,56.5232878 C120.896073,54.6833359 118.903423,53.4681785 116.29418,52.8849891 C115.90675,51.7218382 115.105393,50.7986342 113.881157,50.1189639 C112.65728,49.4418042 111.365727,49.1010723 110.017242,49.1010723 C107.892823,49.1010723 106.00079,49.6602312 104.354033,50.7728103 C102.704771,51.8936388 101.320479,53.3207672 100.208677,55.0674662 C99.0961583,56.8159586 98.2504009,58.7315888 97.6757013,60.8157917 C97.1013597,62.9053746 96.8757767,64.9185617 97.0018167,66.8607332 C97.0462172,68.8975923 97.7344245,70.7432829 99.0707355,72.3927837 C100.407046,74.0483818 103.983075,78.6522069 109.035419,78.650055 C117.279584,78.645751 120.595654,73.5014175 121.005642,72.5559763 C121.562797,71.2601193 122.109209,70.0528526 123.340964,69.9176359 C127.106768,69.5033777 129.509049,67.3495938 130.932728,65.3464492 C132.071028,68.2240193 137.670142,78.6798242 148.053049,78.7608825 C157.957576,78.8394301 163.593572,70.3326114 164.916634,67.5604888 C165.064158,67.8621262 165.212757,68.1612529 165.362071,68.4553583 C166.873836,71.4139866 168.831037,73.8808852 171.242985,75.8696831 C173.649204,77.8541771 176.667362,78.8516247 180.280988,78.8516247 C182.042684,78.8516247 183.669746,78.1454132 185.15931,76.731914 C186.58478,75.3840506 187.804361,73.8482466 188.826646,72.1338275 C188.892172,72.2199071 188.95197,72.3077801 189.021077,72.3927837 C190.357746,74.0483818 193.933774,78.6522069 198.985044,78.650055 C207.229209,78.645751 210.54707,73.5014175 210.955626,72.5559763 C211.514571,71.2601193 212.058118,70.0528526 213.292022,69.9176359 C216.86984,69.5238216 219.21662,67.5594128 220.663216,65.6462932 C220.777798,66.159543 220.894528,66.6541421 221.014123,67.1250694 C221.80438,70.2400758 225.969072,78.1877356 231.522354,78.1877356 C240.441836,78.1877356 244.97498,69.1160194 245.678227,67.6580457 C245.733727,67.5414796 245.786005,67.4263481 245.841148,67.3101406 C245.844012,67.3155206 245.846519,67.3212592 245.849741,67.3266392 C246.732738,68.9162429 251.150943,78.1877356 258.25645,78.1877356 C265.378429,78.1877356 268.184969,71.2414687 269.029652,68.8814524 C271.787494,72.4978726 277.121996,78.1877356 283.845803,78.1877356 C292.394684,78.1877356 295.06086,67.8499316 293.014858,67.5529569 C300.509586,68.6415054 304.186231,60.6597724 303.821718,60.5711821" id="Fill-1"></path>
                        <path d="M248.691694,43.6592979 C251.518285,43.6592979 253.807416,41.277403 253.807416,38.3356319 C253.807416,35.3917088 251.518285,33.0101725 248.691694,33.0101725 C245.865819,33.0101725 243.57633,35.3917088 243.57633,38.3356319 C243.57633,41.277403 245.865819,43.6592979 248.691694,43.6592979" id="Fill-4"></path>
                        <path d="M97.979021,25.5667241 C97.7305216,24.584699 97.5210516,23.6055433 97.1880481,22.6375062 C96.621942,20.6910307 95.7690233,18.8055283 94.8158455,17.0032362 C93.8211317,15.2117041 92.6473837,13.5324341 91.3440151,11.9998581 C90.012359,10.4956167 88.5818761,9.11619075 87.0532824,7.94765987 C85.5232565,6.79060627 83.9506205,5.75370547 82.338955,4.93917704 C81.5454756,4.49443232 80.7312283,4.15370048 79.9316617,3.7846341 C79.1217112,3.46900881 78.3257253,3.11931034 77.5243684,2.85999548 C74.3339797,1.72517911 71.2137724,1.10432983 68.2683025,0.735980777 C62.3608914,0.0197265803 57.0972872,0.359382426 52.5526841,0.961222458 C48.0052165,1.57991975 44.1613531,2.51603565 41.0543943,3.43888094 C37.9467194,4.36065024 35.5791717,5.29138616 33.9789644,5.94881929 C32.3841282,6.62310967 31.550187,7.05422511 31.550187,7.05386645 L30.9855133,7.34546117 L31.2204061,8.26149183 L31.8581258,8.25539452 C31.8581258,8.25539452 32.7597418,8.24678656 34.4498243,8.23100529 C36.1370422,8.2134307 38.6087878,8.22490799 41.7103755,8.30740096 C44.810531,8.39886056 48.5480481,8.55918386 52.7259892,8.98133267 C56.8942624,9.40742681 61.5323213,10.1007264 66.1786158,11.4374713 C70.8177489,12.7412189 75.4353979,14.8372577 78.8649762,17.9493947 C79.7307854,18.7198074 80.488816,19.5802449 81.2207077,20.4672237 C81.9128537,21.3843304 82.5598832,22.3473461 83.1206181,23.3939309 C84.2338525,25.4914044 85.0828325,27.8915912 85.6084768,30.5866007 C86.6511717,35.9848691 86.4348985,42.3820198 85.3051929,48.8864113 C85.1576688,49.7030917 85.0094285,50.5219241 84.8611882,51.3411152 C84.6900316,52.1628169 84.5006134,52.982008 84.3444956,53.8137524 C84.1941069,54.6541047 83.9828466,55.4424506 83.8073932,56.2648696 L83.5481517,57.4965256 C83.4568443,57.9122184 83.3365333,58.3594738 83.2323355,58.7905892 C82.7908372,60.6083039 82.4786016,62.1168493 82.0149032,63.6834985 C81.5673178,65.2436917 81.0040763,66.762997 80.368147,68.2614998 C79.0798172,71.2441587 77.3399633,74.0682877 75.1131364,76.5143836 C72.8855934,78.9568929 70.1632,80.9786881 67.1693908,82.4599749 C65.6733814,83.202053 64.1122035,83.8132183 62.5148608,84.2906016 C60.922889,84.7859181 59.2890233,85.1302366 57.6487124,85.3526089 C54.3663001,85.8077549 51.0556005,85.7213167 47.8702247,85.2747786 C41.4740504,84.3601826 35.6586629,81.996221 30.5107147,79.5802529 C25.3720763,77.1097677 20.7601564,74.5384976 16.9939939,71.8219682 C13.2729479,69.0788975 10.5924485,65.9800311 9.68295501,63.4464209 C9.56729894,63.1307956 9.4648914,62.8216263 9.39972297,62.5224996 C9.33455453,62.343167 9.29158634,61.9794806 9.23465347,61.5372465 C9.10968763,60.6940249 9.04487727,59.8755512 9.01336726,59.0868466 C8.93638257,57.5058509 9.01730601,56.0281507 9.19777244,54.6662993 C9.56443439,51.9458245 10.3375039,49.7066784 10.9340457,48.1601145 C11.2416264,47.3843219 11.4485899,46.7968284 11.664147,46.3732449 C11.8471199,45.9485855 11.9416499,45.7297998 11.9416499,45.7297998 L12.2033979,45.1236558 L11.6319208,44.5817128 L11.0421823,44.8765355 C11.0421823,44.8765355 10.8291317,44.9834177 10.4162789,45.1892915 C10.2146865,45.2940217 9.96582898,45.4299557 9.66182898,45.6214829 C9.35782898,45.8054781 8.99582191,46.0231878 8.63059223,46.295056 C7.13852155,47.356346 4.97972768,49.1776473 3.08984311,52.3303135 C2.15349446,53.899832 1.3224179,55.7968117 0.7427053,57.9638662 C0.584081037,58.5050918 0.466276561,59.063892 0.364227091,59.6363215 C0.244274205,60.2094684 0.165857244,60.7944511 0.0849338045,61.3941392 C-0.0221286219,61.9723073 -0.0113865724,62.6491083 0.0269267373,63.5203059 C0.0634497055,64.2738612 0.165499176,65.0231126 0.305861955,65.7687774 C0.866238869,68.7679349 2.26342144,71.5221242 3.97248151,73.9746761 C5.73560989,76.4021215 7.83245795,78.5910545 10.2161187,80.5091955 C14.9286558,84.4068091 20.7404627,87.3371029 27.1939279,88.9833757 C33.6430963,90.6594177 40.6719774,91.0227454 47.7026488,90.5536115 C51.2246087,90.3179685 54.7612495,89.8563665 58.2918031,89.1573283 C60.0570799,88.8051192 61.8184179,88.3765144 63.5743849,87.8761766 C64.4527265,87.6279803 65.3246229,87.3428416 66.1915062,87.0343896 C67.0637607,86.7402842 67.9288537,86.4135403 68.7842789,86.0527232 C72.217796,84.6420934 75.5578572,82.7971201 78.6451223,80.4718943 C81.7409809,78.1602978 84.550743,75.3401141 86.9175746,72.1587547 C88.1020645,70.570227 89.1644532,68.8862944 90.1115439,67.1471273 C90.5895651,66.2784405 91.0385828,65.3968416 91.4510775,64.4983856 L92.580425,61.9658513 C92.7580269,61.5501585 92.9381352,61.1570615 93.1139468,60.7220008 L93.6385168,59.3967333 C93.9679397,58.5108305 94.3356759,57.6145264 94.6264273,56.7329276 C94.9379468,55.8498941 95.2154497,54.9575354 95.510498,54.0698392 C95.7715298,53.1667205 96.0318455,52.2643192 96.2918031,51.3647871 C97.271478,47.734379 98.0534992,44.0221952 98.4967878,40.2092266 C98.9286181,36.4002033 99.0188514,32.4760485 98.4975039,28.5253524 C98.3524862,27.5375888 98.1988749,26.5465971 97.979021,25.5667241 Z" id="Fill-6"></path>
                        <path d="M62.8729291,18.9779745 C63.7480481,14.5003994 54.4318266,19.6766541 53.8327783,22.742882 C51.1615887,36.4112502 48.4903991,50.0796183 45.8192094,63.7479865 C44.9440905,68.2255615 54.2603119,63.0493069 54.8593602,59.9834376 C57.5305498,46.3143521 60.2017395,32.645984 62.8729291,18.9779745 Z" id="Fill-9"></path>
                    </g>
                </g>
            </g>
        </g>
    </g>
</svg>