<?xml version="1.0" encoding="UTF-8"?>
<svg width="20px" height="20px" viewBox="0 0 20 20" version="1.1" xmlns="http://www.w3.org/2000/svg" xmlns:xlink="http://www.w3.org/1999/xlink">
    <!-- Generator: Sketch 53.2 (72643) - https://sketchapp.com -->
    <title>icon / pro / open-calendar</title>
    <desc>Created with Sketch.</desc>
    <g id="Styleguides-patient" stroke="none" stroke-width="1" fill="none" fill-rule="evenodd">
        <g id="I---Icons" transform="translate(-241.000000, -366.000000)">
            <g id="ICONS" transform="translate(161.000000, 206.000000)">
                <g id="icon-/-pro-/-open-calendar" transform="translate(80.000000, 160.000000)">
                    <rect id="Rectangle" x="0" y="0" width="20" height="20"></rect>
                    <g stroke-width="1" fill-rule="evenodd" fill="white" id="Shape">
                        <path d="M18,3 L17,3 L17,3 L17,1 C17,0.4 16.6,0 16,0 C15.4,0 15,0.5 15,1 L15,3 L15,3 L5,3 L5,3 L5,1 C5,0.4 4.6,0 4,0 C3.4,0 3,0.5 3,1 L3,3 L3,3 L2,3 C0.9,3 0,3.9 0,5 L0,18 C0,19.1 0.9,20 2,20 L18,20 C19.1,20 20,19.1 20,18 L20,5 C20,3.9 19.1,3 18,3 L18,3 Z M18,17 C18,17.5 17.5,18 17,18 L3,18 C2.5,18 2,17.5 2,17 L2,7 C2,6.5 2.5,6 3,6 L17,6 C17.5,6 18,6.5 18,7 L18,17 L18,17 Z"></path>
                        <path d="M13,11 L11,11 L11,9 C11,8.4 10.6,8 10,8 C9.4,8 9,8.4 9,9 L9,11 L7,11 C6.4,11 6,11.4 6,12 C6,12.6 6.4,13 7,13 L9,13 L9,15 C9,15.6 9.4,16 10,16 C10.6,16 11,15.6 11,15 L11,13 L13,13 C13.6,13 14,12.6 14,12 C14,11.4 13.6,11 13,11 L13,11 Z"></path>
                    </g>
                </g>
            </g>
        </g>
    </g>
</svg>
